:SAMPLES-PER-SECOND 30
:FULLY-SPECIFIED
:DEGREES
181
root  5.775755409 38.03444509 -0.6731955555 -26.24700928 -82.74659729 28.38598633
lowerback  12.1626997 3.467089891 -1.406880021
upperback  4.851099968 4.250090122 0.2239149958
thorax  -1.847229958 2.025350094 0.4479160011
lowerneck  3.377249956 6.404220104 -2.063240051
upperneck  6.596010208 8.476510048 -1.703950047
head  1.469550014 4.113609791 -0.1651799977
lclavicle  0 -9.442270133e-015 7.951389973e-016
lhumerus  -6.602660179 5.438139915 47.09550095
lradius  2.909568929e-031 -2.000813006e-031 145.4850006
lwrist  -7.062250077e-031 3.531125038e-031 23.8635006
lhand  -1.496451383e-031 -27.76390076 20.11240005
lfingers  90 7.125020027 -90
lthumb  89.89689403 5.08795885 91.16245106
rclavicle  0 -9.442270133e-015 7.951389973e-016
rhumerus  14.39900017 -0.6858379841 -62.60480118
rradius  -2.462925564e-031 2.530383707e-031 134.2259979
rwrist  0 1.765562519e-031 -14.08310032
rhand  -7.920061211e-032 -33.2840004 9.303460121
rfingers  -90 -7.125020027 -90
rthumb  -92.93752616 -24.25625642 -97.11982154
rfemur  -6.619719982 12.70890045 5.797860146
rtibia  -0 0 48.84909821
rfoot  -0 -31.49139977 -10.3664999
rtoes  5.373923086 19.29304026 -105.8922705
lfemur  -24.12820053 11.31760025 -10.04459953
ltibia  -0 0 61.34820175
lfoot  4.632630872e-032 -17.67650032 4.67016983
ltoes  -4.250644065 -19.5611806 -102.515957
182
root  5.770066779 37.96555527 -0.6908577728 -27.7800293 -83.78220367 29.87902832
lowerback  11.88980007 3.644320011 -1.230270028
upperback  4.711440086 4.524700165 0.506460011
thorax  -1.860190034 2.165770054 0.6148779988
lowerneck  3.100579977 6.50578022 -2.115679979
upperneck  6.868420124 8.63465023 -1.891010046
head  1.610290051 4.180719852 -0.1975129992
lclavicle  0 -9.442270133e-015 7.951389973e-016
lhumerus  -6.470920086 5.345019817 47.81190109
lradius  2.917889601e-031 -1.988658923e-031 145.723999
lwrist  -7.062250077e-031 -8.827812596e-032 22.99300003
lhand  -1.496451383e-031 -27.76390076 20.11240005
lfingers  90 7.125020027 -90
lthumb  89.89689403 5.08795885 91.16245106
rclavicle  0 -9.442270133e-015 7.951389973e-016
rhumerus  15.42770004 -0.3156020045 -62.41059875
rradius  -2.455318481e-031 2.537765788e-031 134.0540009
rwrist  7.062250077e-031 -0 -14.15170002
rhand  -7.920061211e-032 -33.2840004 9.303460121
rfingers  -90 -7.125020027 -90
rthumb  -92.93752616 -24.25625642 -97.11982154
rfemur  -6.587900162 12.84539986 5.84747982
rtibia  -0 0 48.15200043
rfoot  -0 -31.96050072 -9.123270035
rtoes  5.373923086 19.29304026 -105.8922705
lfemur  -23.96520042 11.44460011 -9.648220062
ltibia  -0 0 61.73210144
lfoot  4.636770212e-032 -17.8362999 4.732610226
ltoes  -4.250644065 -19.5611806 -102.515957
183
root  5.771000179 37.94600119 -0.7024133299 -29.50701904 -84.90630341 31.58898926
lowerback  11.75870037 3.752640009 -0.8517490029
upperback  4.552289963 4.724780083 0.739470005
thorax  -1.948850036 2.270319939 0.6199370027
lowerneck  2.716259956 6.711090088 -2.308140039
upperneck  7.322850227 8.927539825 -1.883260012
head  1.813390017 4.308829784 -0.1395460069
lclavicle  0 -9.442270133e-015 7.951389973e-016
lhumerus  -6.678279877 5.198060036 48.36569977
lradius  2.930292424e-031 -1.970337622e-031 146.0829926
lwrist  -7.062250077e-031 -8.827812596e-032 21.90130043
lhand  -1.496451383e-031 -27.76390076 20.11240005
lfingers  90 7.125020027 -90
lthumb  89.89689403 5.08795885 91.16245106
rclavicle  0 -9.442270133e-015 7.951389973e-016
rhumerus  16.34309959 0.185247004 -62.36230087
rradius  -2.447289335e-031 2.545509566e-031 133.8730011
rwrist  1.412450015e-030 -0 -14.37469959
rhand  -7.920061211e-032 -33.2840004 9.303460121
rfingers  -90 -7.125020027 -90
rthumb  -92.93752616 -24.25625642 -97.11982154
rfemur  -6.79776001 13.15470028 5.99943018
rtibia  -0 0 47.69639969
rfoot  -0 -32.08739853 -7.689960003
rtoes  5.373923086 19.29304026 -105.8922705
lfemur  -24.12070084 11.79669952 -9.110230446
ltibia  -0 0 62.51119995
lfoot  4.617679974e-032 -17.08480072 5.11427021
ltoes  -4.250644065 -19.5611806 -102.515957
184
root  5.761955667 38.01000099 -0.7026133106 -33.16601562 -86.01229858 35.26702881
lowerback  11.70870018 3.801879883 -0.3762109876
upperback  4.377280235 4.851510048 0.8120880127
thorax  -2.073559999 2.338959932 0.4101760089
lowerneck  2.3099401 6.896070004 -2.145829916
upperneck  7.774380207 9.20678997 -1.997599959
head  2.044569969 4.436210155 -0.1721370071
lclavicle  0 -9.442270133e-015 7.951389973e-016
lhumerus  -6.901760101 5.257050037 48.66070175
lradius  2.940842284e-031 -1.954556394e-031 146.3910065
lwrist  -7.062250077e-031 -0 21.1984005
lhand  -1.496451383e-031 -27.76390076 20.11240005
lfingers  90 7.125020027 -90
lthumb  89.89689403 5.08795885 91.16245106
rclavicle  0 -9.442270133e-015 7.951389973e-016
rhumerus  17.16659927 0.8629050255 -62.59030151
rradius  -2.433703976e-031 2.558501318e-031 133.5679932
rwrist  1.412450015e-030 -0 -14.56210041
rhand  -7.920061211e-032 -33.2840004 9.303460121
rfingers  -90 -7.125020027 -90
rthumb  -92.93752616 -24.25625642 -97.11982154
rfemur  -7.142149925 13.45079994 6.092619896
rtibia  -0 0 47.38159943
rfoot  -0 -31.70190048 -7.21987009
rtoes  5.373923086 19.29304026 -105.8922705
lfemur  -24.53210068 11.8465004 -8.634530067
ltibia  -0 0 63.5381012
lfoot  4.578957712e-032 -15.43039989 5.8604002
ltoes  -4.250644065 -19.5611806 -102.515957
185
root  5.751822314 38.10733285 -0.6957333388 -43.24102783 -86.87529755 45.40100098
lowerback  11.65550041 3.954750061 -0.2695949972
upperback  4.225299835 5.074170113 0.874646008
thorax  -2.202150106 2.452219963 0.3826720119
lowerneck  2.064870119 6.984499931 -1.968530059
upperneck  8.097550392 9.35033989 -2.148159981
head  2.210939884 4.499300003 -0.2279140055
lclavicle  0 -9.442270133e-015 7.951389973e-016
lhumerus  -7.010069847 5.343140125 49.22119904
lradius  2.950019855e-031 -1.940676916e-031 146.6609955
lwrist  -7.062250077e-031 -0 21.04299927
lhand  -1.496451383e-031 -27.76390076 20.11240005
lfingers  90 7.125020027 -90
lthumb  89.89689403 5.08795885 91.16245106
rclavicle  0 -9.442270133e-015 7.951389973e-016
rhumerus  17.6310997 1.62985003 -62.71239853
rradius  -2.422876453e-031 2.568757235e-031 133.326004
rwrist  7.062250077e-031 -0 -14.66569996
rhand  -7.920061211e-032 -33.2840004 9.303460121
rfingers  -90 -7.125020027 -90
rthumb  -92.93752616 -24.25625642 -97.11982154
rfemur  -7.547460079 13.66940022 5.881380081
rtibia  -0 0 47.08890152
rfoot  -0 -30.87630081 -7.330760002
rtoes  5.373923086 19.29304026 -105.8922705
lfemur  -25.09639931 11.64859962 -8.418410301
ltibia  -0 0 64.59100342
lfoot  4.532713599e-032 -13.14719963 6.314290047
ltoes  -4.250644065 -19.5611806 -102.515957
186
root  5.745133453 38.22977862 -0.685806678 -60.64898682 -87.43099976 62.86700439
lowerback  11.52350044 4.041309834 -0.02898249961
upperback  4.213699818 5.210720062 0.7110980153
thorax  -2.107209921 2.52286005 0.0720821023
lowerneck  1.886430025 7.157949924 -1.894389987
upperneck  8.166040421 9.585160255 -2.050620079
head  2.264100075 4.618330002 -0.1978970021
lclavicle  0 -9.442270133e-015 7.951389973e-016
lhumerus  -7.105080128 5.547450066 49.5
lradius  2.961752789e-031 -1.922723187e-031 147.0090027
lwrist  0 8.827812596e-032 21.37059975
lhand  -1.496451383e-031 -27.76390076 20.11240005
lfingers  90 7.125020027 -90
lthumb  89.89689403 5.08795885 91.16245106
rclavicle  0 -9.442270133e-015 7.951389973e-016
rhumerus  17.98609924 2.439120054 -63.27320099
rradius  -2.413985104e-031 2.577114657e-031 133.128006
rwrist  0 -1.765562519e-031 -14.69589996
rhand  -7.920061211e-032 -33.2840004 9.303460121
rfingers  -90 -7.125020027 -90
rthumb  -92.93752616 -24.25625642 -97.11982154
rfemur  -7.94946003 13.87660027 5.547689915
rtibia  -0 0 46.75979996
rfoot  -0 -29.86009979 -7.072000027
rtoes  5.373923086 19.29304026 -105.8922705
lfemur  -25.73189926 11.57600021 -8.28606987
ltibia  -0 0 65.53209686
lfoot  4.490995529e-032 -10.63129997 6.198050022
ltoes  -4.250644065 -19.5611806 -102.515957
187
root  5.718377631 38.42622351 -0.6550977549 -88.03399658 -87.36810303 90.07397461
lowerback  11.61559963 4.178349972 -0.07246139646
upperback  4.311669827 5.373290062 0.5093129873
thorax  -2.040159941 2.601929903 -0.1349940002
lowerneck  1.801460028 7.384220123 -1.952819943
upperneck  8.124759674 9.880539894 -1.892009974
head  2.254270077 4.768559933 -0.1335290074
lclavicle  0 -9.442270133e-015 7.951389973e-016
lhumerus  -7.378550053 5.857749939 49.76679993
lradius  2.972212268e-031 -1.906514693e-031 147.3220062
lwrist  -1.412450015e-030 8.827812596e-032 22.17270088
lhand  -1.496451383e-031 -27.76390076 20.11240005
lfingers  90 7.125020027 -90
lthumb  89.89689403 5.08795885 91.16245106
rclavicle  0 -9.442270133e-015 7.951389973e-016
rhumerus  18.13439941 3.316800117 -63.79370117
rradius  -2.407184835e-031 2.583467671e-031 132.977005
rwrist  7.062250077e-031 -0 -14.80480003
rhand  -7.920061211e-032 -33.2840004 9.303460121
rfingers  -90 -7.125020027 -90
rthumb  -92.93752616 -24.25625642 -97.11982154
rfemur  -8.118700027 14.13650036 4.873960018
rtibia  -0 0 46.37260056
rfoot  -5.03889699e-032 -28.8404007 -5.99435997
rtoes  5.373923086 19.29304026 -105.8922705
lfemur  -25.96010017 11.63869953 -8.431770325
ltibia  -0 0 66.25589752
lfoot  4.455154811e-032 -7.80272007 5.643229961
ltoes  -4.250644065 -19.5611806 -102.515957
188
root  5.685688755 38.64822087 -0.6018600126 -109.960022 -86.6568985 111.6400146
lowerback  11.87269974 4.374340057 -0.5164459944
upperback  4.502250195 5.568570137 0.5487269759
thorax  -2.02718997 2.689840078 0.1136799976
lowerneck  1.498769999 7.600649834 -2.237289906
upperneck  8.311699867 10.18470001 -1.86480999
head  2.353430033 4.905819893 -0.05869869888
lclavicle  0 -9.442270133e-015 7.951389973e-016
lhumerus  -7.895639896 6.229750156 50.40610123
lradius  2.979874194e-031 -1.894516778e-031 147.5529938
lwrist  -7.062250077e-031 1.765562519e-031 22.76539993
lhand  -1.496451383e-031 -27.76390076 20.11240005
lfingers  90 7.125020027 -90
lthumb  89.89689403 5.08795885 91.16245106
rclavicle  0 -9.442270133e-015 7.951389973e-016
rhumerus  18.19890022 4.264770031 -63.85810089
rradius  -2.402265273e-031 2.588042812e-031 132.8679962
rwrist  1.412450015e-030 -1.765562519e-031 -14.97070026
rhand  -7.920061211e-032 -33.2840004 9.303460121
rfingers  -90 -7.125020027 -90
rthumb  -92.93752616 -24.25625642 -97.11982154
rfemur  -8.104640007 14.3835001 4.02779007
rtibia  -0 0 45.91460037
rfoot  -9.958503368e-032 -27.56830025 -4.97976017
rtoes  5.373923086 19.29304026 -105.8922705
lfemur  -25.92499924 11.67949963 -8.730750084
ltibia  -0 0 66.69020081
lfoot  4.428350565e-032 -4.628950119 5.179709911
ltoes  -4.250644065 -19.5611806 -102.515957
